# File created by Blade
# Date/Time:  Tue Sep 30 19:29:27 2014
#---------------------------------------------------------
:version 1.10
:name HOM
:units
  mass 1.0
  length 1.000000
  angle deg
:documentation
     Acclaim Skeleton File
:root
   axis xyz
   order TX TY TZ RX RY RZ
   position 0.000000 0.000000 0.000000
   orientation 0 0 0
:bonedata
   begin
      id 1
      name RightUpLeg_dum
      direction -1.000000 0.000000 0.000000
      length 3.766986
      axis 0.0 0.0 0.0 xyz
   end
   begin
      id 2
      name LeftUpLeg_dum
      direction 1.000000 0.000000 0.000000
      length 3.766986
      axis 0.0 0.0 0.0 xyz
   end
   begin
      id 3
      name Spine_dum
      direction 0.000000 1.000000 0.000000
      length 7.779697
      axis 0.0 0.0 0.0 xyz
   end
   begin
      id 4
      name RightUpLeg
      direction 0.000000 -1.000000 0.000000
      length 18.017682
      axis 0.0 0.0 0.0 xyz
      dof rx ry rz
   end
   begin
      id 5
      name RightLeg
      direction 0.000000 -1.000000 0.000000
      length 16.881075
      axis 0.0 0.0 0.0 xyz
      dof rx ry rz
   end
   begin
      id 6
      name RightFoot
      direction 0.000000 -0.258819 0.965926
      length 5.770812
      axis 15.0 0.0 0.0 xyz
      dof rx ry rz
   end
   begin
      id 7
      name RightToeBase
      direction 0.000000 0.000000 1.000000
      length 2.952750
      axis 0.0 0.0 0.0 xyz
      dof rx ry rz
   end
   begin
      id 8
      name LeftUpLeg
      direction 0.000000 -1.000000 0.000000
      length 18.017682
      axis 0.0 0.0 0.0 xyz
      dof rx ry rz
   end
   begin
      id 9
      name LeftLeg
      direction 0.000000 -1.000000 0.000000
      length 16.881075
      axis 0.0 0.0 0.0 xyz
      dof rx ry rz
   end
   begin
      id 10
      name LeftFoot
      direction 0.000000 -0.258819 0.965926
      length 5.770812
      axis 15.0 0.0 0.0 xyz
      dof rx ry rz
   end
   begin
      id 11
      name LeftToeBase
      direction 0.000000 0.000000 1.000000
      length 2.952750
      axis 0.0 0.0 0.0 xyz
      dof rx ry rz
   end
   begin
      id 12
      name Spine
      direction 0.000000 1.000000 0.000000
      length 0.000000
      axis 0.0 0.0 0.0 xyz
      dof rx ry rz
   end
   begin
      id 13
      name Spine_dum1
      direction 0.000000 1.000000 0.000000
      length 10.941760
      axis 0.0 0.0 0.0 xyz
   end
   begin
      id 14
      name Spine_dum2
      direction 0.000000 1.000000 0.000000
      length 10.941760
      axis 0.0 0.0 0.0 xyz
   end
   begin
      id 15
      name Spine_dum3
      direction 0.000000 1.000000 0.000000
      length 16.646042
      axis 0.0 0.0 0.0 xyz
   end
   begin
      id 16
      name RightShoulder
      direction -1.000000 0.000000 0.000000
      length 7.708937
      axis 0.0 0.0 90.0 xyz
      dof rx ry rz
   end
   begin
      id 17
      name RightArm
      direction -1.000000 0.000000 0.000000
      length 11.521345
      axis 0.0 0.0 90.0 xyz
      dof rx ry rz
   end
   begin
      id 18
      name RightForeArm
      direction -1.000000 0.000000 0.000000
      length 10.175898
      axis 0.0 0.0 90.0 xyz
      dof ry rz rx
   end
   begin
      id 19
      name RightHand
      direction -1.000000 0.000000 0.000000
      length 0.000000
      axis 0.0 0.0 90.0 xyz
      dof rx ry rz
   end
   begin
      id 20
      name RightHand_dum1
      direction -1.000000 0.000000 0.000000
      length 3.937000
      axis 0.0 0.0 90.0 xyz
   end
   begin
      id 21
      name RightHand_dum2
      direction 0.000000 0.000000 0.000000
      length 0.000000
      axis 0.0 0.0 90.0 xyz
   end
   begin
      id 22
      name RightHandThumb1
      direction 0.000000 0.000000 1.000000
      length 3.937000
      axis 0.0 0.0 90.0 xyz
      dof rx rz ry
   end
   begin
      id 23
      name LeftShoulder
      direction 1.000000 0.000000 0.000000
      length 7.708937
      axis 0.0 0.0 -90.0 xyz
      dof rx ry rz
   end
   begin
      id 24
      name LeftArm
      direction 1.000000 0.000000 0.000000
      length 11.521345
      axis 0.0 0.0 -90.0 xyz
      dof rx ry rz
   end
   begin
      id 25
      name LeftForeArm
      direction 1.000000 0.000000 0.000000
      length 10.175898
      axis 0.0 0.0 -90.0 xyz
      dof ry rz rx
   end
   begin
      id 26
      name LeftHand
      direction 1.000000 0.000000 0.000000
      length 0.000000
      axis 0.0 0.0 -90.0 xyz
      dof rx ry rz
   end
   begin
      id 27
      name LeftHand_dum1
      direction 1.000000 0.000000 0.000000
      length 3.937000
      axis 0.0 0.0 -90.0 xyz
   end
   begin
      id 28
      name LeftHand_dum2
      direction 0.000000 0.000000 0.000000
      length 0.000000
      axis 0.0 0.0 -90.0 xyz
   end
   begin
      id 29
      name LeftHandThumb1
      direction 0.000000 0.000000 1.000000
      length 3.937000
      axis 0.0 0.0 -90.0 xyz
      dof rx rz ry
   end
   begin
      id 30
      name Head
      direction 0.000000 1.000000 0.000000
      length 4.527550
      axis 0.0 0.0 0.0 xyz
      dof rx ry rz
   end
:hierarchy
   begin
      root RightUpLeg_dum LeftUpLeg_dum Spine_dum
      RightUpLeg_dum RightUpLeg
      LeftUpLeg_dum LeftUpLeg
      Spine_dum Spine
      RightUpLeg RightLeg
      RightLeg RightFoot
      RightFoot RightToeBase
      LeftUpLeg LeftLeg
      LeftLeg LeftFoot
      LeftFoot LeftToeBase
      Spine Spine_dum1 Spine_dum2 Spine_dum3
      Spine_dum1 RightShoulder
      Spine_dum2 LeftShoulder
      Spine_dum3 Head
      RightShoulder RightArm
      RightArm RightForeArm
      RightForeArm RightHand
      RightHand RightHand_dum1 RightHand_dum2
      RightHand_dum2 RightHandThumb1
      LeftShoulder LeftArm
      LeftArm LeftForeArm
      LeftForeArm LeftHand
      LeftHand LeftHand_dum1 LeftHand_dum2
      LeftHand_dum2 LeftHandThumb1
   end

# File created by Blade
# Date/Time:  Mon Sep 22 17:23:16 2014
# Frame Rate: 120.000 fps
#------------------------------------------------------
:FULLY-SPECIFIED
:DEGREES
677
root 2.240017 37.218818 0.801618 -18.984331 24.600067 3.572384
RightUpLeg -72.754253 7.176951 25.281994
RightLeg 122.996103 -0.000000 -0.000000
RightFoot 0.733447 -7.178351 25.103177
RightToeBase 2.228277 -0.000000 -0.000000
LeftUpLeg 23.334002 -11.808457 -15.068262
LeftLeg 7.143062 -0.000000 -0.000000
LeftFoot -10.192086 10.621816 -11.091634
LeftToeBase 0.159002 -0.000000 -0.000000
Spine 32.080945 -30.560984 -22.679665
RightShoulder -2.984536 -32.415850 -7.907663
RightArm 9.095081 -25.162545 67.067731
RightForeArm -166.503227 -0.000000 42.645559
RightHand 99.995292 0.000000 -169.982781
RightHandThumb1 -24.326973 -0.000000 -32.862282
LeftShoulder -5.517995 22.453961 14.899190
LeftArm 77.008149 -24.217537 -55.305335
LeftForeArm 36.673390 0.000000 37.073684
LeftHand -22.876426 0.000000 -4.259649
LeftHandThumb1 -26.253704 0.000000 33.147579
Head 1.696654 14.536158 7.843931
678
root 2.310552 37.184082 0.819683 -18.881865 24.500970 4.103918
RightUpLeg -73.280191 6.910860 25.879207
RightLeg 124.162991 -0.000000 -0.000000
RightFoot 1.536566 -6.520851 25.836946
RightToeBase 2.236266 -0.000000 -0.000000
LeftUpLeg 23.575021 -11.454696 -15.590595
LeftLeg 6.898849 -0.000000 -0.000000
LeftFoot -10.107568 10.667736 -10.979305
LeftToeBase 0.182072 -0.000000 -0.000000
Spine 32.060198 -30.410308 -22.970821
RightShoulder -2.917130 -32.301208 -7.971950
RightArm 9.189799 -25.075148 67.050789
RightForeArm -166.452280 0.000000 42.646218
RightHand 99.951396 -0.000000 -169.984144
RightHandThumb1 -24.326973 -0.000000 -32.862282
LeftShoulder -5.600468 22.483100 14.547812
LeftArm 76.890977 -24.445171 -55.515270
LeftForeArm 36.642890 -0.000000 37.623435
LeftHand -22.740249 0.000000 -4.281931
LeftHandThumb1 -26.253704 0.000000 33.147579
Head 1.545662 14.681720 7.577177
679
root 2.376883 37.151823 0.840683 -18.848334 24.374188 4.575138
RightUpLeg -73.705346 6.670526 26.472208
RightLeg 125.223362 -0.000000 -0.000000
RightFoot 2.364357 -5.695033 26.578112
RightToeBase 2.175041 -0.000000 -0.000000
LeftUpLeg 23.849476 -11.082524 -16.045044
LeftLeg 6.673499 -0.000000 -0.000000
LeftFoot -10.042081 10.667260 -10.899297
LeftToeBase 0.162063 -0.000000 -0.000000
Spine 32.104081 -30.226523 -23.230988
RightShoulder -2.855881 -32.110995 -8.024741
RightArm 9.240648 -24.988036 67.057643
RightForeArm -166.274653 -0.000000 42.661728
RightHand 99.932055 -0.000000 -169.835482
RightHandThumb1 -24.326973 -0.000000 -32.862282
LeftShoulder -5.702287 22.519141 14.215416
LeftArm 76.841131 -24.661833 -55.824861
LeftForeArm 36.713964 -0.000000 38.197115
LeftHand -22.859254 -0.000000 -4.467241
LeftHandThumb1 -26.253704 0.000000 33.147579
Head 1.378040 14.679077 7.267039
680
root 2.437083 37.120969 0.866627 -18.864285 24.221451 4.975982
RightUpLeg -74.006278 6.436725 27.136339
RightLeg 126.118237 -0.000000 -0.000000
RightFoot 3.090457 -4.943162 27.096673
RightToeBase 2.187817 -0.000000 -0.000000
LeftUpLeg 24.136850 -10.703402 -16.426097
LeftLeg 6.466770 -0.000000 -0.000000
LeftFoot -10.003937 10.674457 -10.785040
LeftToeBase 0.126203 -0.000000 -0.000000
Spine 32.166415 -30.008012 -23.410503
RightShoulder -2.808058 -31.967815 -8.057339
RightArm 9.320863 -24.860398 67.059914
RightForeArm -166.208923 -0.000000 42.720064
RightHand 99.892927 0.000000 -169.810432
RightHandThumb1 -24.326973 -0.000000 -32.862282
LeftShoulder -5.774352 22.520942 13.926235
LeftArm 76.757995 -24.840306 -56.098794
LeftForeArm 36.524095 -0.000000 38.721180
LeftHand -22.840816 -0.000000 -4.327893
LeftHandThumb1 -26.253704 0.000000 33.147579
Head 1.189553 14.734907 7.037571
681
root 2.498908 37.090925 0.890398 -18.862173 24.086406 5.363868
RightUpLeg -74.288311 6.230859 27.665447
RightLeg 126.929112 -0.000000 -0.000000
RightFoot 3.804613 -3.966485 27.822879
RightToeBase 2.272905 -0.000000 -0.000000
LeftUpLeg 24.375512 -10.330034 -16.781656
LeftLeg 6.299670 -0.000000 -0.000000
LeftFoot -9.965239 10.607998 -10.727189
LeftToeBase 0.090268 -0.000000 -0.000000
Spine 32.202227 -29.845516 -23.559641
RightShoulder -2.737336 -31.736942 -8.136405
RightArm 9.325160 -24.701895 67.134236
RightForeArm -166.248911 -0.000000 42.766253
RightHand 99.916635 -0.000000 -169.574590
RightHandThumb1 -24.326973 -0.000000 -32.862282
LeftShoulder -5.864419 22.486740 13.595509
LeftArm 76.606189 -25.007654 -56.254106
LeftForeArm 36.354733 -0.000000 39.240344
LeftHand -22.832396 -0.000000 -4.316399
LeftHandThumb1 -26.253704 0.000000 33.147579
Head 1.004295 14.809909 6.710831
682
root 2.557120 37.061994 0.912437 -18.857233 23.976267 5.709315
RightUpLeg -74.561323 6.006877 28.126945
RightLeg 127.633559 -0.000000 -0.000000
RightFoot 4.594515 -2.962455 28.487048
RightToeBase 2.135255 -0.000000 -0.000000
LeftUpLeg 24.573832 -10.112761 -17.169190
LeftLeg 6.214157 -0.000000 -0.000000
LeftFoot -9.968535 10.693293 -10.574834
LeftToeBase -0.037122 -0.000000 0.000000
Spine 32.220295 -29.716342 -23.665740
RightShoulder -2.683059 -31.668368 -8.204597
RightArm 9.509798 -24.552270 67.104065
RightForeArm -166.115241 0.000000 42.839582
RightHand 99.879504 -0.000000 -169.232995
RightHandThumb1 -24.326973 -0.000000 -32.862282
LeftShoulder -5.939237 22.504596 13.292136
LeftArm 76.536940 -25.181800 -56.492040
LeftForeArm 36.322760 -0.000000 39.697324
LeftHand -22.690580 -0.000000 -4.344854
LeftHandThumb1 -26.253704 0.000000 33.147579
Head 0.851128 14.859753 6.398431
683
root 2.609892 37.034286 0.932652 -18.827586 23.850152 6.020294
RightUpLeg -74.787855 5.861897 28.490154
RightLeg 128.226097 -0.000000 -0.000000
RightFoot 5.329201 -1.875052 29.011236
RightToeBase 2.216422 -0.000000 -0.000000
LeftUpLeg 24.675427 -9.899366 -17.496345
LeftLeg 6.214744 -0.000000 -0.000000
LeftFoot -10.066454 10.743542 -10.594469
LeftToeBase 0.089865 -0.000000 -0.000000
Spine 32.188628 -29.600667 -23.713396
RightShoulder -2.612215 -31.546132 -8.274546
RightArm 9.626461 -24.374085 67.131341
RightForeArm -166.063519 -0.000000 42.910532
RightHand 99.844463 -0.000000 -169.023221
RightHandThumb1 -24.326973 -0.000000 -32.862282
LeftShoulder -6.007239 22.475598 13.014409
LeftArm 76.386312 -25.314432 -56.651226
LeftForeArm 36.389347 -0.000000 40.163238
LeftHand -22.755333 0.000000 -4.463457
LeftHandThumb1 -26.253704 0.000000 33.147579
Head 0.742167 14.885573 6.124435
684
root 2.662280 37.010692 0.949909 -18.801906 23.704979 6.312454
RightUpLeg -74.948444 5.762862 28.746679
RightLeg 128.687293 -0.000000 -0.000000
RightFoot 6.016666 -0.730266 29.524208
RightToeBase 1.904287 -0.000000 -0.000000
LeftUpLeg 24.764304 -9.637365 -17.783653
LeftLeg 6.221042 -0.000000 -0.000000
LeftFoot -10.064152 10.752235 -10.472562
LeftToeBase -0.075740 -0.000000 0.000000
Spine 32.141220 -29.500722 -23.735005
RightShoulder -2.494614 -31.435337 -8.372388
RightArm 9.773666 -24.213088 67.159481
RightForeArm -166.048358 -0.000000 42.970062
RightHand 99.897182 -0.000000 -168.685703
RightHandThumb1 -24.326973 -0.000000 -32.862282
LeftShoulder -6.076501 22.420871 12.716459
LeftArm 76.198136 -25.445466 -56.693361
LeftForeArm 36.484990 -0.000000 40.545366
LeftHand -22.721636 -0.000000 -4.617687
LeftHandThumb1 -26.253704 0.000000 33.147579
Head 0.682645 14.893504 5.795220
685
root 2.713333 36.987566 0.966993 -18.743590 23.581978 6.597540
RightUpLeg -75.073934 5.680940 28.900837
RightLeg 129.055018 -0.000000 -0.000000
RightFoot 6.571962 0.350708 29.966835
RightToeBase 1.728630 -0.000000 -0.000000
LeftUpLeg 24.785022 -9.350213 -18.032847
LeftLeg 6.278920 -0.000000 -0.000000
LeftFoot -10.138787 10.719106 -10.470961
LeftToeBase -0.019198 -0.000000 0.000000
Spine 32.030110 -29.438150 -23.729238
RightShoulder -2.377359 -31.314110 -8.475676
RightArm 9.890122 -24.099611 67.171366
RightForeArm -165.941151 -0.000000 43.059140
RightHand 99.817850 -0.000000 -168.616625
RightHandThumb1 -24.326973 -0.000000 -32.862282
LeftShoulder -6.157829 22.478352 12.397078
LeftArm 76.137643 -25.597790 -56.738314
LeftForeArm 36.633790 -0.000000 40.840476
LeftHand -22.700782 -0.000000 -4.688344
LeftHandThumb1 -26.253704 0.000000 33.147579
Head 0.691693 15.017637 5.526807
686
root 2.755625 36.965426 0.981565 -18.657577 23.481413 6.861513
RightUpLeg -75.179639 5.612191 28.970044
RightLeg 129.316902 -0.000000 -0.000000
RightFoot 6.994442 1.238905 30.415619
RightToeBase 1.823728 -0.000000 -0.000000
LeftUpLeg 24.766685 -9.163195 -18.297404
LeftLeg 6.353953 -0.000000 -0.000000
LeftFoot -10.201766 10.762237 -10.519195
LeftToeBase -0.078601 -0.000000 0.000000
Spine 31.885010 -29.377786 -23.717407
RightShoulder -2.299453 -31.216166 -8.537612
RightArm 10.055199 -24.042595 67.174487
RightForeArm -165.790038 -0.000000 43.118739
RightHand 99.802524 -0.000000 -168.429424
RightHandThumb1 -24.326973 -0.000000 -32.862282
LeftShoulder -6.231025 22.476804 12.140993
LeftArm 76.014866 -25.682689 -56.674579
LeftForeArm 36.744685 -0.000000 41.083630
LeftHand -22.746188 -0.000000 -4.770327
LeftHandThumb1 -26.253704 0.000000 33.147579
Head 0.752362 14.973222 5.292065
687
root 2.796571 36.944485 0.999233 -18.595675 23.413905 7.101246
RightUpLeg -75.213874 5.534573 28.976705
RightLeg 129.499762 -0.000000 -0.000000
RightFoot 7.202318 1.968345 30.589310
RightToeBase 1.800873 -0.000000 -0.000000
LeftUpLeg 24.753563 -8.947072 -18.506591
LeftLeg 6.451296 -0.000000 -0.000000
LeftFoot -10.219865 10.705773 -10.328875
LeftToeBase -0.202280 -0.000000 0.000000
Spine 31.755370 -29.348289 -23.700784
RightShoulder -2.230570 -31.108083 -8.600561
RightArm 10.189990 -24.005055 67.185716
RightForeArm -165.800042 -0.000000 43.240536
RightHand 99.727277 0.000000 -168.204426
RightHandThumb1 -24.326973 -0.000000 -32.862282
LeftShoulder -6.292652 22.509053 11.919156
LeftArm 75.926342 -25.769957 -56.620785
LeftForeArm 36.832454 0.000000 41.258471
LeftHand -22.882342 0.000000 -4.862555
LeftHandThumb1 -26.253704 0.000000 33.147579
Head 0.823910 15.077551 5.102177
688
root 2.834826 36.924701 1.018371 -18.508172 23.341626 7.293827
RightUpLeg -75.227305 5.497733 28.918315
RightLeg 129.598379 -0.000000 -0.000000
RightFoot 7.263296 2.505912 30.798407
RightToeBase 1.947524 -0.000000 -0.000000
LeftUpLeg 24.688847 -8.751793 -18.661457
LeftLeg 6.574388 -0.000000 -0.000000
LeftFoot -10.327821 10.635853 -10.297663
LeftToeBase -0.129454 -0.000000 0.000000
Spine 31.543692 -29.357523 -23.600149
RightShoulder -2.165774 -30.997642 -8.684137
RightArm 10.316868 -23.980893 67.206856
RightForeArm -165.782679 -0.000000 43.355225
RightHand 99.763462 -0.000000 -168.113288
RightHandThumb1 -24.326973 -0.000000 -32.862282
LeftShoulder -6.326964 22.567858 11.692003
LeftArm 75.828363 -25.872985 -56.551298
LeftForeArm 36.924050 0.000000 41.395261
LeftHand -22.825509 -0.000000 -4.962309
LeftHandThumb1 -26.253704 0.000000 33.147579
Head 0.967059 15.112992 4.861319
689
root 2.868336 36.907348 1.037848 -18.444487 23.260064 7.464004
RightUpLeg -75.155024 5.474298 28.810466
RightLeg 129.596095 -0.000000 -0.000000
RightFoot 7.124513 2.857613 30.825526
RightToeBase 1.880148 -0.000000 -0.000000
LeftUpLeg 24.687371 -8.648921 -18.847498
LeftLeg 6.618913 -0.000000 -0.000000
LeftFoot -10.361724 10.670607 -10.210122
LeftToeBase -0.287644 -0.000000 0.000000
Spine 31.349426 -29.369381 -23.500914
RightShoulder -2.102887 -30.935588 -8.758407
RightArm 10.511233 -24.019889 67.151360
RightForeArm -165.701674 -0.000000 43.530958
RightHand 99.731932 -0.000000 -168.022171
RightHandThumb1 -24.326973 -0.000000 -32.862282
LeftShoulder -6.373856 22.666362 11.465636
LeftArm 75.753978 -26.000732 -56.428958
LeftForeArm 36.904928 -0.000000 41.454915
LeftHand -22.848147 -0.000000 -5.055418
LeftHandThumb1 -26.253704 0.000000 33.147579
Head 1.142702 15.119071 4.586673
